HIERARCHY
ROOT Hips
{
 OFFSET 0.000000 0.000000 0.000000
 CHANNELS 6 Xposition Yposition Zposition Yrotation Xrotation Zrotation
 JOINT Chest
 {
  OFFSET 0.000000 9.585900 0.002600
  CHANNELS 3 Yrotation Xrotation Zrotation
  JOINT Chest2
  {
   OFFSET 0.000000 9.601200 -0.005300
   CHANNELS 3 Yrotation Xrotation Zrotation
   JOINT Chest3
   {
    OFFSET 0.000000 9.561800 0.000000
    CHANNELS 3 Yrotation Xrotation Zrotation
    JOINT Chest4
    {
     OFFSET 0.000000 9.552100 0.000000
     CHANNELS 3 Yrotation Xrotation Zrotation
     JOINT Neck
     {
      OFFSET 0.000000 14.453000 0.000000
      CHANNELS 3 Yrotation Xrotation Zrotation
      JOINT Head
      {
       OFFSET 0.000000 8.936500 -0.011300
       CHANNELS 3 Yrotation Xrotation Zrotation
       End Site
       {
        OFFSET 0.000000 17.073600 -0.006000
       }
      }
     }
     JOINT RightCollar
     {
      OFFSET -2.921100 9.558500 0.000000
      CHANNELS 3 Yrotation Xrotation Zrotation
      JOINT RightShoulder
      {
       OFFSET -13.519700 0.000000 0.000000
       CHANNELS 3 Yrotation Xrotation Zrotation
       JOINT RightElbow
       {
        OFFSET 0.000000 -29.696600 0.000000
        CHANNELS 3 Yrotation Xrotation Zrotation
        JOINT RightWrist
        {
         OFFSET 0.000000 -24.004700 0.000000
         CHANNELS 3 Yrotation Xrotation Zrotation
         End Site
         {
          OFFSET 0.000000 -17.728500 0.000000
         }
        }
       }
      }
     }
     JOINT LeftCollar
     {
      OFFSET 2.921100 9.558500 0.000000
      CHANNELS 3 Yrotation Xrotation Zrotation
      JOINT LeftShoulder
      {
       OFFSET 13.519700 0.000000 0.000000
       CHANNELS 3 Yrotation Xrotation Zrotation
       JOINT LeftElbow
       {
        OFFSET 0.000000 -29.696600 0.000000
        CHANNELS 3 Yrotation Xrotation Zrotation
        JOINT LeftWrist
        {
         OFFSET 0.000000 -24.004700 0.000000
         CHANNELS 3 Yrotation Xrotation Zrotation
         End Site
         {
          OFFSET 0.000000 -17.728500 0.000000
         }
        }
       }
      }
     }
    }
   }
  }
 }
 JOINT RightHip
 {
  OFFSET -7.771700 -0.012900 -0.001300
  CHANNELS 3 Yrotation Xrotation Zrotation
  JOINT RightKnee
  {
   OFFSET 0.000000 -40.869800 0.001200
   CHANNELS 3 Yrotation Xrotation Zrotation
   JOINT RightAnkle
   {
    OFFSET 0.000000 -39.717900 0.002100
    CHANNELS 3 Yrotation Xrotation Zrotation
    JOINT RightToe
    {
     OFFSET 0.000000 -4.965400 11.033500
     CHANNELS 3 Yrotation Xrotation Zrotation
     End Site
     {
      OFFSET 0.000000 -1.423100 5.872300
     }
    }
   }
  }
 }
 JOINT LeftHip
 {
  OFFSET 7.771700 -0.012900 -0.001300
  CHANNELS 3 Yrotation Xrotation Zrotation
  JOINT LeftKnee
  {
   OFFSET 0.000000 -40.869800 0.001200
   CHANNELS 3 Yrotation Xrotation Zrotation
   JOINT LeftAnkle
   {
    OFFSET 0.000000 -39.717900 0.002100
    CHANNELS 3 Yrotation Xrotation Zrotation
    JOINT LeftToe
    {
     OFFSET 0.000000 -4.965400 11.033500
     CHANNELS 3 Yrotation Xrotation Zrotation
     End Site
     {
      OFFSET 0.000000 -1.423100 5.872300
     }
    }
   }
  }
 }
}
MOTION
Frames: 13
Frame Time: 0.008333
-18.128592 51.527546 29.368494 178.432240 -20.753180 0.599930 -1.841795 12.906798 0.754735 -0.155604 1.021861 0.118307 -0.265370 1.746491 0.221538 -1.675369 11.682914 1.179730 -1.434523 14.323517 -2.223932 -1.020519 -10.652767 -1.963216 2.339808 15.731616 9.613655 27.915229 0.195976 -28.176142 122.903506 -55.887600 -156.011030 4.192824 11.425068 -12.039208 -1.081462 14.658593 -13.535648 -27.860717 8.608192 25.714968 -99.505137 -61.196924 136.479614 10.548236 11.271991 -15.744228 -12.710737 -62.262584 5.092708 -72.725570 83.023626 -81.499181 -3.551375 -6.850233 7.314239 0.223019 -0.661797 0.090013 12.311293 -59.793336 -9.964577 48.312928 85.840524 54.319909 -2.713696 -13.710632 0.904795 0.135541 0.465238 0.069132
-18.126728 51.528699 29.372652 178.415287 -20.745501 0.622980 -1.833194 12.910572 0.778195 -0.155711 1.020349 0.108620 -0.265335 1.741859 0.211135 -1.677613 11.688350 1.184223 -1.447079 14.328051 -2.222558 -1.037932 -10.646174 -1.958980 2.288655 15.735610 9.570201 27.974346 0.155486 -28.193683 122.929141 -55.954731 -156.031549 4.132248 11.421841 -11.989954 -1.152724 14.646592 -13.502667 -27.822932 8.573174 25.697324 -99.505274 -61.194246 136.471623 10.551320 11.290822 -15.679774 -12.698489 -62.277798 5.094338 -72.686330 83.015787 -81.475829 -3.540439 -6.826615 7.307163 0.218417 -0.675477 0.095566 12.352289 -59.793073 -9.991351 48.213107 85.836557 54.217904 -2.712316 -13.709886 0.898065 0.134517 0.465569 0.072539
-18.125462 51.530526 29.375339 178.417068 -20.746414 0.644395 -1.841532 12.914164 0.776172 -0.155425 1.019028 0.098202 -0.267400 1.743946 0.222167 -1.683577 11.689717 1.185032 -1.471487 14.350729 -2.194440 -1.034498 -10.653538 -1.985473 2.233158 15.744928 9.525579 28.040810 0.107679 -28.220199 122.958122 -56.032680 -156.051020 4.104250 11.414886 -11.930527 -1.181227 14.640016 -13.508167 -27.821697 8.570166 25.728730 -99.481865 -61.199680 136.455057 10.577371 11.309135 -15.634179 -12.666133 -62.282704 5.057423 -72.673097 83.011108 -81.467695 -3.527988 -6.817753 7.299031 0.207441 -0.681297 0.102490 12.381162 -59.783824 -10.024531 48.123592 85.829139 54.126101 -2.720517 -13.702320 0.895874 0.138148 0.461740 0.072236
-18.124659 51.531626 29.380236 178.427195 -20.732171 0.666692 -1.860285 12.901371 0.770939 -0.158364 1.023262 0.119433 -0.264391 1.738980 0.190227 -1.695009 11.695464 1.209611 -1.476624 14.348826 -2.220585 -1.052400 -10.641227 -1.970940 2.119238 15.752004 9.452223 28.159208 0.065711 -28.255150 122.993456 -56.129357 -156.095207 4.134915 11.391899 -11.830098 -1.215880 14.627699 -13.525834 -27.814065 8.562091 25.743222 -99.443602 -61.189649 136.426578 10.606531 11.329652 -15.589653 -12.638896 -62.303295 5.018278 -72.649358 83.004644 -81.447677 -3.519575 -6.809740 7.296018 0.201171 -0.684496 0.104774 12.409729 -59.787190 -10.065291 47.899045 85.818977 53.895457 -2.728459 -13.693740 0.896536 0.141115 0.464253 0.071453
-18.122651 51.533604 29.383022 178.420279 -20.730093 0.689795 -1.861078 12.899767 0.760198 -0.163467 1.025125 0.130514 -0.260697 1.737251 0.179683 -1.702082 11.696419 1.209974 -1.480394 14.352251 -2.221686 -1.064700 -10.634639 -1.960364 2.041924 15.758462 9.422152 28.235251 0.025505 -28.309560 122.798333 -56.161361 -155.975060 4.083759 11.371598 -11.676849 -1.259622 14.615916 -13.515553 -27.797189 8.553133 25.746821 -99.385609 -61.174278 136.389609 10.569993 11.321724 -15.502912 -12.595861 -62.311768 4.982025 -72.614566 83.002857 -81.417250 -3.512889 -6.791551 7.296008 0.195473 -0.692956 0.102635 12.437758 -59.779189 -10.084426 47.715142 85.817291 53.702283 -2.734749 -13.692887 0.899276 0.144040 0.466304 0.071056
-18.122149 51.535444 29.386334 178.430109 -20.722965 0.717513 -1.880557 12.893239 0.738370 -0.170073 1.026201 0.141007 -0.270449 1.741414 0.197248 -1.710912 11.694133 1.193516 -1.483817 14.354588 -2.225492 -1.058518 -10.637016 -1.971535 1.997982 15.761448 9.388115 28.271962 -0.016541 -28.379397 122.601604 -56.164439 -155.820546 4.080153 11.372334 -11.533554 -1.291300 14.595809 -13.526801 -27.782200 8.556465 25.748054 -99.292946 -61.107246 136.313988 10.599088 11.335032 -15.424582 -12.551496 -62.331744 4.938353 -72.662628 82.993672 -81.474388 -3.532869 -6.765622 7.292828 0.207150 -0.708070 0.110449 12.477785 -59.774555 -10.140220 47.626998 85.802847 53.611690 -2.745015 -13.680857 0.897825 0.149674 0.461733 0.070927
-18.119979 51.537121 29.390127 178.447092 -20.710987 0.734005 -1.920218 12.885217 0.752459 -0.157541 1.022581 0.110221 -0.268817 1.741084 0.192609 -1.738671 11.697394 1.208134 -1.479149 14.356013 -2.229647 -1.040392 -10.641845 -1.993839 1.966373 15.767075 9.357061 28.289996 -0.058433 -28.458714 122.328948 -56.130283 -155.598645 4.098200 11.378335 -11.379551 -1.318632 14.571625 -13.537626 -27.755770 8.569264 25.740893 -99.242847 -61.061607 136.285727 10.606906 11.342610 -15.372852 -12.531688 -62.351604 4.911833 -72.684140 82.987880 -81.505773 -3.534316 -6.744578 7.291503 0.209611 -0.720210 0.115536 12.493896 -59.776105 -10.172378 47.444610 85.789027 53.424308 -2.757590 -13.673834 0.895146 0.155509 0.465810 0.073568
-18.118411 51.539461 29.392173 178.458944 -20.707446 0.756979 -1.942771 12.882010 0.733093 -0.157653 1.022159 0.109783 -0.276869 1.741639 0.202139 -1.759839 11.694662 1.208449 -1.471114 14.359257 -2.231558 -1.031501 -10.638459 -1.997590 1.934491 15.777200 9.324698 28.293005 -0.100218 -28.540278 121.975269 -56.057089 -155.298677 4.138757 11.391910 -11.230584 -1.352023 14.549142 -13.550535 -27.713372 8.583250 25.726678 -99.234079 -61.050042 136.294119 10.603440 11.342447 -15.350609 -12.493938 -62.361807 4.865666 -72.695771 82.989874 -81.524917 -3.540146 -6.737759 7.297946 0.207224 -0.721580 0.111047 12.522072 -59.767852 -10.211999 47.251433 85.783406 53.225873 -2.762662 -13.667391 0.896116 0.157230 0.466404 0.074332
-18.116040 51.542089 29.393383 178.470691 -20.706335 0.775364 -1.965024 12.881687 0.718775 -0.165606 1.023628 0.119649 -0.280508 1.741325 0.201926 -1.784226 11.691853 1.204034 -1.458647 14.363035 -2.229121 -1.021120 -10.628669 -1.979185 1.909916 15.783054 9.291691 28.285560 -0.138085 -28.620259 121.542217 -55.944665 -154.921004 4.200939 11.416775 -11.103940 -1.382171 14.526024 -13.565901 -27.658342 8.586352 25.705887 -99.224518 -61.027488 136.285242 10.599718 11.343190 -15.329132 -12.462845 -62.368104 4.828112 -72.716202 82.990205 -81.549816 -3.551171 -6.731238 7.301066 0.207133 -0.723932 0.108659 12.550218 -59.756094 -10.241770 47.019566 85.780344 52.989589 -2.778035 -13.668386 0.900313 0.164467 0.473395 0.077389
-18.114476 51.545171 29.393252 178.501985 -20.710491 0.791091 -2.011266 12.888257 0.705765 -0.167583 1.023688 0.119302 -0.283853 1.741460 0.201286 -1.807150 11.690479 1.197980 -1.442928 14.367271 -2.220206 -1.004613 -10.630624 -1.991731 1.883846 15.781619 9.262642 28.275706 -0.169120 -28.697730 121.038823 -55.797096 -154.484549 4.284259 11.449673 -11.007644 -1.415408 14.502912 -13.576271 -27.605890 8.658310 25.714714 -99.284263 -60.995653 136.384725 10.604145 11.348523 -15.283844 -12.427920 -62.375883 4.778056 -72.802282 82.975814 -81.634777 -3.587980 -6.666980 7.281108 0.255964 -0.778608 0.132609 12.567125 -59.741683 -10.283332 46.886939 85.774430 52.854105 -2.802880 -13.680909 0.901307 0.180194 0.490858 0.084022
-18.112494 51.547673 29.394393 178.509264 -20.702500 0.811015 -2.034481 12.885326 0.693531 -0.169894 1.023877 0.119379 -0.287628 1.741848 0.201165 -1.871777 11.695301 1.206120 -1.392654 14.366131 -2.227765 -0.989982 -10.626575 -1.982907 1.922368 15.771684 9.217190 28.242773 -0.200490 -28.776198 120.479332 -55.622703 -154.008387 4.384070 11.487515 -10.945208 -1.379836 14.482429 -13.610840 -27.578930 8.728889 25.727338 -99.327099 -60.963317 136.456784 10.606811 11.338601 -15.235890 -12.390834 -62.391472 4.741362 -72.830050 82.973517 -81.669800 -3.588804 -6.648860 7.290266 0.252443 -0.791472 0.127936 12.604784 -59.739245 -10.321327 46.759632 85.768882 52.722505 -2.812396 -13.674808 0.907736 0.189224 0.487175 0.084350
-18.109693 51.550290 29.394841 178.505167 -20.694826 0.827813 -2.064915 12.891967 0.699185 -0.154517 1.017123 0.105918 -0.291183 1.741767 0.200950 -1.898244 11.692781 1.201596 -1.372658 14.370698 -2.213170 -0.974621 -10.622803 -1.971727 1.929394 15.765306 9.191020 28.215290 -0.226350 -28.855952 119.879905 -55.434039 -153.505769 4.494116 11.527323 -10.920903 -1.375044 14.467586 -13.625925 -27.554232 8.799896 25.737325 -99.333895 -60.880522 136.435157 10.619462 11.318308 -15.147095 -12.358671 -62.402760 4.719039 -72.807356 82.971743 -81.656310 -3.576490 -6.626524 7.297827 0.238374 -0.806365 0.123974 12.644012 -59.737758 -10.345155 46.664374 85.766049 52.622896 -2.824914 -13.671899 0.916021 0.193660 0.483862 0.084134
-18.107637 51.552873 29.394755 178.503569 -20.686212 0.845136 -2.086214 12.892146 0.689550 -0.154907 1.013882 0.108192 -0.294614 1.741704 0.200669 -1.921751 11.693173 1.196976 -1.352393 14.373964 -2.198289 -0.958089 -10.617603 -1.960254 1.912376 15.751402 9.154068 28.212579 -0.242331 -28.928993 119.266952 -55.242336 -152.998098 4.612652 11.566604 -10.927480 -1.457770 14.437948 -13.630144 -27.446089 8.861731 25.723902 -99.397572 -60.844936 136.505343 10.623392 11.308676 -15.096804 -12.324930 -62.414318 4.693129 -72.804651 82.963133 -81.657523 -3.575042 -6.613292 7.302474 0.239228 -0.805823 0.115798 12.687887 -59.736179 -10.373503 46.561846 85.763171 52.513821 -2.836723 -13.671116 0.927163 0.195756 0.482514 0.084566
